<svg xmlns="http://www.w3.org/2000/svg" xmlns:xlink="http://www.w3.org/1999/xlink" viewBox="0 0 64 64"><defs><linearGradient id="linear-gradient" x1="32" y1="1.304" x2="32" y2="63.304" gradientUnits="userSpaceOnUse"><stop offset="0" stop-color="#ffe100"/><stop offset="1" stop-color="#f98900"/></linearGradient><linearGradient id="linear-gradient-2" x1="12.08" y1="48.025" x2="49.92" y2="48.025" gradientUnits="userSpaceOnUse"><stop offset="0" stop-color="#b8b4b2"/><stop offset="0.333" stop-color="#e6e1de"/><stop offset="0.5" stop-color="#fffaf6"/><stop offset="0.731" stop-color="#e8e5e3"/><stop offset="1" stop-color="#d1d1d1"/></linearGradient><linearGradient id="linear-gradient-3" x1="31.025" y1="41.636" x2="30.238" y2="54.517" gradientUnits="userSpaceOnUse"><stop offset="0" stop-color="#383838" stop-opacity="0.7"/><stop offset="0.15" stop-color="#575757" stop-opacity="0.559"/><stop offset="0.671" stop-color="#b0b0b0" stop-opacity="0.15"/><stop offset="1" stop-color="#d1d1d1" stop-opacity="0"/></linearGradient><linearGradient id="linear-gradient-4" x1="11" y1="41" x2="51" y2="41" gradientUnits="userSpaceOnUse"><stop offset="0" stop-color="#b8b4b2"/><stop offset="0.333" stop-color="#e6e1de"/><stop offset="0.5" stop-color="#fffaf6"/><stop offset="0.638" stop-color="#f9f5f1"/><stop offset="0.825" stop-color="#e8e5e3"/><stop offset="1" stop-color="#d1d1d1"/></linearGradient><linearGradient id="linear-gradient-5" x1="10.219" y1="45" x2="51.781" y2="45" gradientUnits="userSpaceOnUse"><stop offset="0" stop-color="#331901"/><stop offset="0.525" stop-color="#803f02"/><stop offset="0.608" stop-color="#6d3602"/><stop offset="0.77" stop-color="#4d2601"/><stop offset="0.906" stop-color="#3a1c01"/><stop offset="1" stop-color="#331901"/></linearGradient><linearGradient id="linear-gradient-6" x1="43" y1="28.963" x2="43" y2="20.906" gradientUnits="userSpaceOnUse"><stop offset="0" stop-color="#803f02"/><stop offset="0.174" stop-color="#6d3602"/><stop offset="0.515" stop-color="#4d2601"/><stop offset="0.802" stop-color="#3a1c01"/><stop offset="1" stop-color="#331901"/></linearGradient><linearGradient id="linear-gradient-7" x1="21" y1="28.963" x2="21" y2="20.906" xlink:href="#linear-gradient-6"/></defs><g id="_03-Grinning_Face_with_Smiling_Eyes" data-name="03-Grinning Face with Smiling Eyes"><path d="M32,63C4.3,63,.962,39,1,33V31C.962,25,4.3,1,32,1h0C59.7,1,63.038,25,63,31v2C63.038,39,59.7,63,32,63Z" style="fill:url(#linear-gradient)"/><path d="M51,36a69.955,69.955,0,0,1-20,3.02A69.955,69.955,0,0,1,11,36c0,.348.026.679.045,1.015L11,37a16.733,16.733,0,0,0,1.08,6.05,17.207,17.207,0,0,0,5.64,7.39A20.9,20.9,0,0,0,31,55a20.9,20.9,0,0,0,13.28-4.56,17.207,17.207,0,0,0,5.64-7.39A16.733,16.733,0,0,0,51,37l-.045.015C50.974,36.679,51,36.348,51,36Z" style="fill:#f9bf06"/><path d="M51,35a69.955,69.955,0,0,1-20,3.02A69.955,69.955,0,0,1,11,35c0,.348.026.679.045,1.015L11,36a16.733,16.733,0,0,0,1.08,6.05,17.207,17.207,0,0,0,5.64,7.39A20.9,20.9,0,0,0,31,54a20.9,20.9,0,0,0,13.28-4.56,17.207,17.207,0,0,0,5.64-7.39A16.733,16.733,0,0,0,51,36l-.045.015C50.974,35.679,51,35.348,51,35Z" style="fill:#ed8d06"/><path d="M49.92,42.05a17.207,17.207,0,0,1-5.64,7.39A20.9,20.9,0,0,1,31,54a20.9,20.9,0,0,1-13.28-4.56,17.207,17.207,0,0,1-5.64-7.39C12.82,42.51,18.86,46,31,46S49.18,42.51,49.92,42.05Z" style="fill:url(#linear-gradient-2)"/><path d="M49.92,42.05a17.207,17.207,0,0,1-5.64,7.39A20.9,20.9,0,0,1,31,54a20.9,20.9,0,0,1-13.28-4.56,17.207,17.207,0,0,1-5.64-7.39C12.82,42.51,18.86,46,31,46S49.18,42.51,49.92,42.05Z" style="fill:url(#linear-gradient-3)"/><path d="M51,36a16.733,16.733,0,0,1-1.08,6.05C49.18,42.51,43.14,46,31,46s-18.18-3.49-18.92-3.95A16.733,16.733,0,0,1,11,36a69.955,69.955,0,0,0,20,3.02A69.955,69.955,0,0,0,51,36Z" style="fill:url(#linear-gradient-4)"/><path d="M31,39.02A69.955,69.955,0,0,1,11,36a16.733,16.733,0,0,0,1.08,6.05c.12.313.255.613.391.911A17.5,17.5,0,0,0,17.72,49.44,20.9,20.9,0,0,0,31,54a20.9,20.9,0,0,0,13.28-4.56,17.5,17.5,0,0,0,5.249-6.479c.136-.3.271-.6.391-.911A16.733,16.733,0,0,0,51,36,69.955,69.955,0,0,1,31,39.02ZM48,44a13.093,13.093,0,0,1-4.015,4.822A21.325,21.325,0,0,1,31,53a21.325,21.325,0,0,1-12.985-4.178A13.093,13.093,0,0,1,14,44c-.046-.082.044.083,0,0,2.824,1.481,7.694,3,17,3s14.176-1.519,17-3C47.956,44.083,48.046,43.918,48,44Zm1.437-1.915c-.028.1-.059.194-.089.29C47.486,43.367,41.548,46,31,46s-16.486-2.633-18.348-3.625c-.03-.1-.061-.192-.089-.29a14.412,14.412,0,0,1-.5-2.654,1,1,0,0,1,1.255-1.054A71.322,71.322,0,0,0,31,40.718a71.322,71.322,0,0,0,17.68-2.341,1,1,0,0,1,1.255,1.054A14.412,14.412,0,0,1,49.437,42.085Z" style="fill:url(#linear-gradient-5)"/><path d="M48,26.5c0-3-2-6-5-6s-5,3-5,6c0,.181.014.332.021.5-.013.167-.021.335-.021.5,0,3,1,4,1,4s1-6,4-6,4,6,4,6,1-1,1-4c0-.167-.008-.335-.021-.5C47.986,26.832,48,26.681,48,26.5Z" style="fill:#ed8d06"/><path d="M21,20.5c-3,0-5,3-5,6,0,.181.014.332.021.5-.013.167-.021.335-.021.5,0,3,1,4,1,4s1-6,4-6,4,6,4,6,1-1,1-4c0-.167-.008-.335-.021-.5.007-.166.021-.317.021-.5C26,23.5,24,20.5,21,20.5Z" style="fill:#ed8d06"/><path d="M39,30.5s-1-1-1-4,2-6,5-6,5,3,5,6-1,4-1,4-1-6-4-6S39,30.5,39,30.5Z" style="fill:url(#linear-gradient-6)"/><path d="M17,30.5s-1-1-1-4,2-6,5-6,5,3,5,6-1,4-1,4-1-6-4-6S17,30.5,17,30.5Z" style="fill:url(#linear-gradient-7)"/></g></svg>