<svg xmlns="http://www.w3.org/2000/svg" xmlns:xlink="http://www.w3.org/1999/xlink" viewBox="0 0 64 64"><defs><linearGradient id="linear-gradient" x1="32" y1="1.304" x2="32" y2="63.304" gradientUnits="userSpaceOnUse"><stop offset="0" stop-color="#ffe100"/><stop offset="1" stop-color="#f98900"/></linearGradient><linearGradient id="linear-gradient-2" x1="43" y1="29.725" x2="43" y2="20.193" gradientUnits="userSpaceOnUse"><stop offset="0.005" stop-color="#414d4d"/><stop offset="0.206" stop-color="#3a4545"/><stop offset="0.522" stop-color="#272e2e"/><stop offset="0.914" stop-color="#080909"/><stop offset="1"/></linearGradient><linearGradient id="linear-gradient-3" x1="21" y1="29.856" x2="21" y2="20.875" xlink:href="#linear-gradient-2"/><linearGradient id="linear-gradient-4" x1="32" y1="48.287" x2="32" y2="40.333" gradientUnits="userSpaceOnUse"><stop offset="0" stop-color="#803f02"/><stop offset="0.174" stop-color="#6d3602"/><stop offset="0.515" stop-color="#4d2601"/><stop offset="0.802" stop-color="#3a1c01"/><stop offset="1" stop-color="#331901"/></linearGradient></defs><g id="_06-Slightly_Smiling_Face" data-name="06-Slightly Smiling Face"><path d="M32,63C4.3,63,.962,39,1,33V31C.962,25,4.3,1,32,1h0C59.7,1,63.038,25,63,31v2C63.038,39,59.7,63,32,63Z" style="fill:url(#linear-gradient)"/><path d="M46,24c0-2.761-1.343-5-3-5s-3,2.239-3,5c0,.171.02.333.03.5-.01.167-.03.329-.03.5,0,2.761,1.343,5,3,5s3-2.239,3-5c0-.171-.02-.333-.03-.5C45.98,24.333,46,24.171,46,24Z" style="fill:#eda406"/><path d="M24,24c0-2.761-1.343-5-3-5s-3,2.239-3,5c0,.171.02.333.03.5-.01.167-.03.329-.03.5,0,2.761,1.343,5,3,5s3-2.239,3-5c0-.171-.02-.333-.03-.5C23.98,24.333,24,24.171,24,24Z" style="fill:#eda406"/><path d="M46,25c0-2.761-1.343-5-3-5s-3,2.239-3,5c0,.171.02.333.03.5-.01.167-.03.329-.03.5,0,2.761,1.343,5,3,5s3-2.239,3-5c0-.171-.02-.333-.03-.5C45.98,25.333,46,25.171,46,25Z" style="fill:#ffd000"/><path d="M24,25c0-2.761-1.343-5-3-5s-3,2.239-3,5c0,.171.02.333.03.5-.01.167-.03.329-.03.5,0,2.761,1.343,5,3,5s3-2.239,3-5c0-.171-.02-.333-.03-.5C23.98,25.333,24,25.171,24,25Z" style="fill:#ffd000"/><ellipse cx="43" cy="25" rx="3" ry="5" style="fill:url(#linear-gradient-2)"/><ellipse cx="21" cy="25" rx="3" ry="5" style="fill:url(#linear-gradient-3)"/><path d="M43,23c1.451,0,2.661.718,2.94,3A8.343,8.343,0,0,0,46,25c0-2.761-1.343-5-3-5s-3,2.239-3,5a8.343,8.343,0,0,0,.06,1C40.339,23.718,41.549,23,43,23Z"/><path d="M21,23c1.451,0,2.661.718,2.94,3A8.343,8.343,0,0,0,24,25c0-2.761-1.343-5-3-5s-3,2.239-3,5a8.343,8.343,0,0,0,.06,1C18.339,23.718,19.549,23,21,23Z"/><path d="M32,46c-8,0-13-6-13-6a11.73,11.73,0,0,0,5.612,7.122,15.471,15.471,0,0,0,14.776,0A11.73,11.73,0,0,0,45,40S40,46,32,46Z" style="fill:#f9bf06"/><path d="M32,45a19.617,19.617,0,0,1-13-5s1.02,3.622,5.612,6.122a15.471,15.471,0,0,0,14.776,0C43.98,43.622,45,40,45,40A19.617,19.617,0,0,1,32,45Z" style="fill:#ed8d06"/><path d="M45,40s-1.02,3.622-5.612,6.123a15.477,15.477,0,0,1-14.776,0C20.02,43.622,19,40,19,40s5,6,13,6S45,40,45,40Z" style="fill:url(#linear-gradient-4)"/></g></svg>